<svg id="Layer_1" data-name="Layer 1" xmlns="http://www.w3.org/2000/svg" viewBox="0 0 53.74 53.72"><defs><style>.cls-1{fill:#fff;}.cls-2{fill:#187cc0;}.cls-3{fill:#193f73;}.cls-4{fill:#20aae2;}</style></defs><circle class="cls-1" cx="26.89" cy="26.85" r="26.85"/><path class="cls-2" d="M148.72,195a16.6,16.6,0,0,1,14.2-16.42.79.79,0,0,0,.68-.78v-8.78a.79.79,0,0,0-.87-.79,26.9,26.9,0,0,0-21.95,37.84.82.82,0,0,0,.48.43.84.84,0,0,0,.64-.07l7.62-4.4a.79.79,0,0,0,.34-1A16.6,16.6,0,0,1,148.72,195Z" transform="translate(-138.4 -168.23)"/><path class="cls-3" d="M176.39,208.31a.79.79,0,0,0-1-.07,16.56,16.56,0,0,1-23.12-3,.79.79,0,0,0-1-.2l-7.61,4.39a.79.79,0,0,0-.25,1.15,26.89,26.89,0,0,0,39.21,5.12.8.8,0,0,0,0-1.17Z" transform="translate(-138.4 -168.23)"/><path class="cls-4" d="M191.27,193.13a.79.79,0,0,0,.59-.26.81.81,0,0,0,.2-.61,26.9,26.9,0,0,0-24.18-24,.79.79,0,0,0-.87.79v8.78a.78.78,0,0,0,.68.78,16.6,16.6,0,0,1,14,13.84.79.79,0,0,0,.78.67Z" transform="translate(-138.4 -168.23)"/><path class="cls-3" d="M182.54,196.53a.8.8,0,0,0-.79.69,16.45,16.45,0,0,1-3.07,7.62.79.79,0,0,0,.08,1l6.22,6.22a.8.8,0,0,0,.6.23.76.76,0,0,0,.58-.29,26.8,26.8,0,0,0,5.94-14.63.81.81,0,0,0-.2-.61.83.83,0,0,0-.59-.26Z" transform="translate(-138.4 -168.23)"/><path class="cls-3" d="M175,189.6a4,4,0,1,1-4.8-4.53,11.11,11.11,0,1,0,4.8,4.53Z" transform="translate(-138.4 -168.23)"/></svg>