<svg id="Layer_1" data-name="Layer 1" xmlns="http://www.w3.org/2000/svg" viewBox="0 0 53.7 53.68"><defs><style>.cls-1{fill:#fff;}.cls-2{fill:#187cc0;}.cls-3{fill:#193f73;}.cls-4{fill:#20aae2;}</style></defs><circle class="cls-1" cx="26.89" cy="26.81" r="16.72"/><path class="cls-2" d="M281.38,420.57a16.61,16.61,0,0,1,14.21-16.42.79.79,0,0,0,.68-.78v-8.78A.77.77,0,0,0,296,394a.78.78,0,0,0-.61-.2,26.9,26.9,0,0,0-21.95,37.84.77.77,0,0,0,.48.42.8.8,0,0,0,.64-.06l7.62-4.4a.8.8,0,0,0,.34-1A16.4,16.4,0,0,1,281.38,420.57Z" transform="translate(-271.07 -393.79)"/><path class="cls-3" d="M309.06,433.84a.79.79,0,0,0-1-.07,16.57,16.57,0,0,1-23.13-3,.8.8,0,0,0-1-.2l-7.61,4.4a.79.79,0,0,0-.25,1.15,26.87,26.87,0,0,0,39.2,5.12.8.8,0,0,0,.29-.57.82.82,0,0,0-.23-.6Z" transform="translate(-271.07 -393.79)"/><path class="cls-4" d="M323.94,418.66a.77.77,0,0,0,.58-.26.74.74,0,0,0,.2-.61,26.89,26.89,0,0,0-24.18-24,.79.79,0,0,0-.87.79v8.78a.79.79,0,0,0,.68.78,16.6,16.6,0,0,1,14,13.84.79.79,0,0,0,.78.67Z" transform="translate(-271.07 -393.79)"/><path class="cls-3" d="M315.2,422.06a.8.8,0,0,0-.78.69,16.45,16.45,0,0,1-3.07,7.62.79.79,0,0,0,.08,1l6.22,6.22a.8.8,0,0,0,.6.23.84.84,0,0,0,.58-.29,26.8,26.8,0,0,0,5.94-14.63.81.81,0,0,0-.79-.87Z" transform="translate(-271.07 -393.79)"/><path class="cls-3" d="M307.67,415.13a4,4,0,1,1-4.8-4.53,11.11,11.11,0,1,0,4.8,4.53Z" transform="translate(-271.07 -393.79)"/></svg>